<svg width="50" height="50" viewBox="0 0 50 50" fill="none" xmlns="http://www.w3.org/2000/svg">
<g clip-path="url(#clip0_35824_2)">
<path fill-rule="evenodd" clip-rule="evenodd" d="M-0.00012207 0V50H49.9999V0H-0.00012207ZM42.2871 11.0637L36.4126 39.3204C36.2743 39.9876 35.492 40.2899 34.94 39.8888L26.9208 34.0667C26.4339 33.7132 25.7701 33.732 25.3041 34.112L20.8579 37.7363C20.342 38.1582 19.5644 37.9231 19.3668 37.2876L16.2795 27.3589L8.30339 24.3821C7.49317 24.0786 7.48625 22.9347 8.29416 22.6235L41.0284 9.99549C41.7224 9.72714 42.4383 10.3351 42.2871 11.0637Z" fill="black"/>
<path fill-rule="evenodd" clip-rule="evenodd" d="M34.4578 16.1734L18.8694 25.7741C18.2719 26.1428 17.9907 26.8643 18.1835 27.5398L19.8689 33.4619C19.9888 33.8815 20.5975 33.8386 20.6559 33.4051L21.0939 30.1575C21.1767 29.5461 21.4682 28.9825 21.9205 28.5617L34.7852 16.6032C35.0261 16.3802 34.7378 16.0014 34.4578 16.1734Z" fill="black"/>
</g>
<defs>
<clipPath id="clip0_35824_2">
<rect width="50" height="50" fill="white"/>
</clipPath>
</defs>
</svg>
