<svg width="50" height="50" viewBox="0 0 50 50" fill="none" xmlns="http://www.w3.org/2000/svg">
<g clip-path="url(#clip0_35824_8)">
<path fill-rule="evenodd" clip-rule="evenodd" d="M-0.00012207 0V50H49.9999V0H-0.00012207ZM38.7637 17.9405C38.7772 18.2453 38.7842 18.5516 38.7842 18.8592C38.7842 28.2442 31.6411 39.0654 18.5783 39.0654C14.5678 39.0654 10.8348 37.8899 7.69208 35.8745C8.24768 35.9406 8.81285 35.9742 9.38625 35.9742C12.7135 35.9742 15.7756 34.8389 18.2063 32.9337C15.0986 32.8767 12.4757 30.8234 11.5719 28.0019C12.0057 28.0851 12.4506 28.1297 12.9082 28.1297C13.5559 28.1297 14.1834 28.0424 14.7793 27.8804C11.5306 27.2278 9.08252 24.3577 9.08252 20.9169C9.08252 20.8869 9.08251 20.8571 9.08317 20.8275C10.0405 21.3593 11.1355 21.6789 12.2998 21.7158C10.3941 20.4423 9.14065 18.2685 9.14065 15.8048C9.14065 14.5032 9.49087 13.2834 10.1023 12.2343C13.6048 16.5311 18.8378 19.3582 24.74 19.6547C24.6188 19.1347 24.5557 18.5926 24.5557 18.0362C24.5557 14.1144 27.7357 10.9347 31.6575 10.9347C33.7002 10.9347 35.5459 11.797 36.8413 13.1771C38.4588 12.859 39.9788 12.2677 41.351 11.454C40.8209 13.1124 39.6948 14.5038 38.2285 15.383C39.6652 15.2112 41.0337 14.8293 42.3074 14.2645C41.3555 15.6886 40.1515 16.9395 38.7637 17.9405Z" fill="black"/>
</g>
<defs>
<clipPath id="clip0_35824_8">
<rect width="50" height="50" fill="white"/>
</clipPath>
</defs>
</svg>
