<svg width="19" height="17" viewBox="0 0 19 17" fill="none" xmlns="http://www.w3.org/2000/svg">
<path d="M3.30291 2H0.612915V0H5.14873L5.61202 4H17.129V9.93845L4.50392 12.3694L3.30291 2ZM16.6129 17C15.7578 17 15.0645 16.3284 15.0645 15.5C15.0645 14.6716 15.7578 14 16.6129 14C17.4681 14 18.1613 14.6716 18.1613 15.5C18.1613 16.3284 17.4681 17 16.6129 17ZM6.29033 17C5.43518 17 4.74195 16.3284 4.74195 15.5C4.74195 14.6716 5.43518 14 6.29033 14C7.14548 14 7.83872 14.6716 7.83872 15.5C7.83872 16.3284 7.14548 17 6.29033 17Z" fill="white"/>
</svg>
