<svg width="50" height="50" viewBox="0 0 50 50" fill="none" xmlns="http://www.w3.org/2000/svg">
<g clip-path="url(#clip0_35824_6)">
<path fill-rule="evenodd" clip-rule="evenodd" d="M-0.00012207 0V50H49.9999V0H-0.00012207ZM37.4832 27.6623C38.631 28.7821 39.8447 29.8364 40.8749 31.0743C41.3301 31.6213 41.7606 32.1856 42.0888 32.8195C42.5546 33.7276 42.1324 34.7225 41.3212 34.7774L36.28 34.7752C34.9788 34.8821 33.9419 34.3575 33.0674 33.4673C32.372 32.7585 31.722 31.9998 31.0506 31.2669C30.7775 30.9652 30.4886 30.683 30.1453 30.4579C29.4566 30.0116 28.8592 30.1471 28.4656 30.8644C28.0653 31.5951 27.9712 32.4063 27.9343 33.2199C27.8794 34.4075 27.5211 34.7181 26.3291 34.7753C23.7788 34.8934 21.3601 34.5059 19.1138 33.2221C17.1301 32.0895 15.5949 30.4881 14.2585 28.6775C11.6538 25.1474 9.659 21.2719 7.8679 17.2848C7.46306 16.3863 7.75878 15.9047 8.74691 15.8874C10.3942 15.8548 12.0408 15.8588 13.6857 15.8852C14.3548 15.8964 14.7988 16.2788 15.0547 16.9109C15.9449 19.0984 17.0338 21.1801 18.4006 23.1116C18.7663 23.6256 19.138 24.1374 19.6648 24.5002C20.2488 24.9027 20.695 24.7712 20.9704 24.1173C21.1457 23.7019 21.2224 23.2601 21.2593 22.816C21.3903 21.2959 21.406 19.7742 21.1804 18.2586C21.0404 17.3112 20.5047 16.6987 19.5601 16.5196C19.0786 16.4277 19.1508 16.2508 19.3826 15.9747C19.7897 15.5005 20.1726 15.2048 20.9313 15.2048H26.6288C27.5274 15.3801 27.7289 15.7848 27.851 16.688L27.8555 23.0198C27.8448 23.3697 28.0308 24.406 28.6583 24.6356C29.1611 24.8019 29.4959 24.397 29.7977 24.0779C31.1622 22.63 32.1358 20.9179 33.0058 19.1464C33.391 18.3676 33.7236 17.5586 34.0472 16.7489C34.2857 16.1498 34.6575 15.8547 35.3333 15.8654L40.8186 15.8721C40.9803 15.8721 41.1467 15.8721 41.3063 15.8984C42.2289 16.0579 42.4826 16.456 42.1959 17.3591C41.748 18.774 40.8706 19.9553 40.0157 21.1384C39.0991 22.4048 38.1238 23.627 37.2141 24.9002C36.3831 26.066 36.4486 26.6522 37.4832 27.6623Z" fill="black"/>
</g>
<defs>
<clipPath id="clip0_35824_6">
<rect width="50" height="50" fill="white"/>
</clipPath>
</defs>
</svg>
